<svg width="166" height="112" viewBox="0 0 166 112" fill="none" xmlns="http://www.w3.org/2000/svg">
<mask id="mask0_51_4" style="mask-type:luminance" maskUnits="userSpaceOnUse" x="119" y="62" width="47" height="50">
<path d="M119.7 62.2535H165.271V111.715H119.7V62.2535Z" fill="white"/>
</mask>
<g mask="url(#mask0_51_4)">
<path d="M131.093 62.2535C130.194 62.2535 129.465 63.0448 129.465 64.0199V65.7862H126.21C122.633 65.7862 119.7 68.9699 119.7 72.8525V104.648C119.7 108.531 122.633 111.715 126.21 111.715H158.76C162.337 111.715 165.271 108.531 165.271 104.648V72.8525C165.271 68.9699 162.337 65.7862 158.76 65.7862H155.505V64.0199C155.505 63.0448 154.776 62.2535 153.878 62.2535C152.98 62.2535 152.251 63.0448 152.251 64.0199V65.7862H144.113V64.0199C144.113 63.0448 143.384 62.2535 142.485 62.2535C141.587 62.2535 140.858 63.0448 140.858 64.0199V65.7862H132.72V64.0199C132.72 63.0448 131.991 62.2535 131.093 62.2535ZM126.21 69.3189H129.465V71.0861C129.465 72.0612 130.194 72.8525 131.093 72.8525C131.991 72.8525 132.72 72.0612 132.72 71.0861V69.3189H140.858V71.0861C140.858 72.0612 141.587 72.8525 142.485 72.8525C143.384 72.8525 144.113 72.0612 144.113 71.0861V69.3189H152.251V71.0861C152.251 72.0612 152.98 72.8525 153.878 72.8525C154.776 72.8525 155.505 72.0612 155.505 71.0861V69.3189H158.76C160.592 69.3189 162.016 70.8646 162.016 72.8525V76.3852H122.955V72.8525C122.955 70.8646 124.379 69.3189 126.21 69.3189ZM122.955 79.9179H162.016V104.648C162.016 106.636 160.592 108.182 158.76 108.182H126.21C124.379 108.182 122.955 106.636 122.955 104.648V79.9179Z" fill="white"/>
</g>
<path d="M128.66 85.2269H131.906C132.355 85.2269 132.72 85.6129 132.72 86.1097V89.634C132.72 90.1215 132.355 90.5167 131.906 90.5167H128.66C128.202 90.5167 127.846 90.1215 127.846 89.634V86.1097C127.846 85.6129 128.202 85.2269 128.66 85.2269Z" fill="white"/>
<path d="M136.789 85.2269H140.035C140.493 85.2269 140.849 85.6129 140.849 86.1097V89.634C140.849 90.1215 140.493 90.5167 140.035 90.5167H136.789C136.34 90.5167 135.975 90.1215 135.975 89.634V86.1097C135.975 85.6129 136.34 85.2269 136.789 85.2269Z" fill="white"/>
<path d="M144.935 85.2269H148.182C148.631 85.2269 148.995 85.6129 148.995 86.1097V89.634C148.995 90.1215 148.631 90.5167 148.182 90.5167H144.935C144.477 90.5167 144.121 90.1215 144.121 89.634V86.1097C144.121 85.6129 144.477 85.2269 144.935 85.2269Z" fill="white"/>
<path d="M153.064 85.2269H156.311C156.769 85.2269 157.124 85.6129 157.124 86.1097V89.634C157.124 90.1215 156.769 90.5167 156.311 90.5167H153.064C152.615 90.5167 152.25 90.1215 152.25 89.634V86.1097C152.25 85.6129 152.615 85.2269 153.064 85.2269Z" fill="white"/>
<path d="M128.66 95.8167H131.906C132.355 95.8167 132.72 96.2119 132.72 96.6994V100.223C132.72 100.72 132.355 101.106 131.906 101.106H128.66C128.202 101.106 127.846 100.72 127.846 100.223V96.6994C127.846 96.2119 128.202 95.8167 128.66 95.8167Z" fill="white"/>
<path d="M136.789 95.8167H140.035C140.493 95.8167 140.849 96.2119 140.849 96.6994V100.223C140.849 100.72 140.493 101.106 140.035 101.106H136.789C136.34 101.106 135.975 100.72 135.975 100.223V96.6994C135.975 96.2119 136.34 95.8167 136.789 95.8167Z" fill="white"/>
<path d="M144.935 95.8167H148.182C148.631 95.8167 148.995 96.2119 148.995 96.6994V100.223C148.995 100.72 148.631 101.106 148.182 101.106H144.935C144.477 101.106 144.121 100.72 144.121 100.223V96.6994C144.121 96.2119 144.477 95.8167 144.935 95.8167Z" fill="white"/>
<path d="M153.064 95.8167H156.311C156.769 95.8167 157.124 96.2119 157.124 96.6994V100.223C157.124 100.72 156.769 101.106 156.311 101.106H153.064C152.615 101.106 152.25 100.72 152.25 100.223V96.6994C152.25 96.2119 152.615 95.8167 153.064 95.8167Z" fill="white"/>
<mask id="mask1_51_4" style="mask-type:luminance" maskUnits="userSpaceOnUse" x="124" y="80" width="37" height="27">
<path d="M124 80H160.812V106.422H124V80Z" fill="white"/>
</mask>
<g mask="url(#mask1_51_4)">
<path d="M124 80H160.801V106.422H124V80Z" fill="#212121"/>
</g>
</svg>
